<svg xmlns="http://www.w3.org/2000/svg" viewBox="-16 -20 32 40" font-family="JetBrains Mono, ui-monospace, monospace" shape-rendering="crispEdges">
  <g stroke="#e8202a" fill="none" stroke-linecap="square" stroke-linejoin="miter">

    <!-- ── Profile panel (side view, looking down -Z) ── -->
    <g>
      <g stroke-width="0.04">
        <line x1="-13.000" y1="-16.600" x2="-12.100" y2="-16.600"/>
        <line x1="-12.100" y1="-17.500" x2="-12.100" y2="-16.600"/>
        <line x1="12.100" y1="-16.600" x2="13.000" y2="-16.600"/>
        <line x1="12.100" y1="-17.500" x2="12.100" y2="-16.600"/>
        <line x1="-13.000" y1="-2.400" x2="-12.100" y2="-2.400"/>
        <line x1="-12.100" y1="-2.400" x2="-12.100" y2="-1.500"/>
        <line x1="12.100" y1="-2.400" x2="13.000" y2="-2.400"/>
        <line x1="12.100" y1="-2.400" x2="12.100" y2="-1.500"/>
      </g>
      <g stroke-width="0.03">
        <line x1="-5.440" y1="-3.100" x2="7.040" y2="-3.100"/>
        <line x1="-5.440" y1="-3.250" x2="-5.440" y2="-2.950"/>
        <line x1="7.040" y1="-3.250" x2="7.040" y2="-2.950"/>
      </g>
      <g stroke-width="0.12">
        <rect x="-5.440" y="-10.940" width="10.880" height="2.880"/>
        <rect x="-4.160" y="-8.220" width="1.920" height="4.160"/>
        <rect x="-0.800" y="-13.020" width="1.600" height="2.240"/>
      </g>
      <g stroke-width="0.07">
        <rect x="5.440" y="-10.364" width="1.600" height="1.728"/>
        <line x1="-0.800" y1="-12.700" x2="-0.800" y2="-11.100"/>
      </g>
      <g stroke-width="0.02" stroke-dasharray="0.4 0.3" opacity="0.55">
        <line x1="-11.800" y1="-9.500" x2="11.800" y2="-9.500"/>
        <line x1="0" y1="-16.300" x2="0" y2="-2.700"/>
      </g>
    </g>

    <!-- ── Angle panel (yaw 28° / pitch 22° wireframe) ── -->
    <g>
      <g stroke-width="0.04">
        <line x1="-13.000" y1="0.400" x2="-12.100" y2="0.400"/>
        <line x1="-12.100" y1="-0.500" x2="-12.100" y2="0.400"/>
        <line x1="12.100" y1="0.400" x2="13.000" y2="0.400"/>
        <line x1="12.100" y1="-0.500" x2="12.100" y2="0.400"/>
        <line x1="-13.000" y1="16.600" x2="-12.100" y2="16.600"/>
        <line x1="-12.100" y1="16.600" x2="-12.100" y2="17.500"/>
        <line x1="12.100" y1="16.600" x2="13.000" y2="16.600"/>
        <line x1="12.100" y1="16.600" x2="12.100" y2="17.500"/>
      </g>
      <g stroke-width="0.10">
        <line x1="-5.780" y1="10.104" x2="3.827" y2="8.190"/>
        <line x1="3.827" y1="8.190" x2="3.827" y2="5.520"/>
        <line x1="3.827" y1="5.520" x2="-5.780" y2="7.434"/>
        <line x1="-5.780" y1="7.434" x2="-5.780" y2="10.104"/>
        <line x1="-3.827" y1="11.480" x2="5.780" y2="9.566"/>
        <line x1="5.780" y1="9.566" x2="5.780" y2="6.896"/>
        <line x1="5.780" y1="6.896" x2="-3.827" y2="8.810"/>
        <line x1="-3.827" y1="8.810" x2="-3.827" y2="11.480"/>
        <line x1="-5.780" y1="10.104" x2="-3.827" y2="11.480"/>
        <line x1="3.827" y1="8.190" x2="5.780" y2="9.566"/>
        <line x1="3.827" y1="5.520" x2="5.780" y2="6.896"/>
        <line x1="-5.780" y1="7.434" x2="-3.827" y2="8.810"/>
        <line x1="-4.424" y1="13.746" x2="-2.729" y2="13.409"/>
        <line x1="-2.729" y1="13.409" x2="-2.729" y2="9.552"/>
        <line x1="-2.729" y1="9.552" x2="-4.424" y2="9.889"/>
        <line x1="-4.424" y1="9.889" x2="-4.424" y2="13.746"/>
        <line x1="-2.922" y1="14.805" x2="-1.227" y2="14.467"/>
        <line x1="-1.227" y1="14.467" x2="-1.227" y2="10.610"/>
        <line x1="-1.227" y1="10.610" x2="-2.922" y2="10.948"/>
        <line x1="-2.922" y1="10.948" x2="-2.922" y2="14.805"/>
        <line x1="-4.424" y1="13.746" x2="-2.922" y2="14.805"/>
        <line x1="-2.729" y1="13.409" x2="-1.227" y2="14.467"/>
        <line x1="-2.729" y1="9.552" x2="-1.227" y2="10.610"/>
        <line x1="-4.424" y1="9.889" x2="-2.922" y2="10.948"/>
        <line x1="-2.058" y1="6.501" x2="-0.646" y2="6.220"/>
        <line x1="-0.646" y1="6.220" x2="-0.646" y2="4.143"/>
        <line x1="-0.646" y1="4.143" x2="-2.058" y2="4.424"/>
        <line x1="-2.058" y1="4.424" x2="-2.058" y2="6.501"/>
        <line x1="0.646" y1="8.406" x2="2.058" y2="8.125"/>
        <line x1="2.058" y1="8.125" x2="2.058" y2="6.048"/>
        <line x1="2.058" y1="6.048" x2="0.646" y2="6.330"/>
        <line x1="0.646" y1="6.330" x2="0.646" y2="8.406"/>
        <line x1="-2.058" y1="6.501" x2="0.646" y2="8.406"/>
        <line x1="-0.646" y1="6.220" x2="2.058" y2="8.125"/>
        <line x1="-0.646" y1="4.143" x2="2.058" y2="6.048"/>
        <line x1="-2.058" y1="4.424" x2="0.646" y2="6.330"/>
      </g>
      <g stroke-width="0.06">
        <line x1="4.266" y1="7.966" x2="5.679" y2="7.685"/>
        <line x1="5.679" y1="7.685" x2="5.679" y2="6.082"/>
        <line x1="5.679" y1="6.082" x2="4.266" y2="6.364"/>
        <line x1="4.266" y1="6.364" x2="4.266" y2="7.966"/>
        <line x1="5.340" y1="8.723" x2="6.753" y2="8.441"/>
        <line x1="6.753" y1="8.441" x2="6.753" y2="6.839"/>
        <line x1="6.753" y1="6.839" x2="5.340" y2="7.121"/>
        <line x1="5.340" y1="7.121" x2="5.340" y2="8.723"/>
        <line x1="4.266" y1="7.966" x2="5.340" y2="8.723"/>
        <line x1="5.679" y1="7.685" x2="6.753" y2="8.441"/>
        <line x1="5.679" y1="6.082" x2="6.753" y2="6.839"/>
        <line x1="4.266" y1="6.364" x2="5.340" y2="7.121"/>
        <polyline points="-1.833,6.363 -1.833,4.880 0.420,6.468 0.420,7.951 -1.833,6.363"/>
      </g>
      <g stroke-width="0.05">
        <circle cx="10.600" cy="1.900" r="0.95" fill="none"/>
        <line x1="10.600" y1="1.900" x2="11.483" y2="1.724"/>
        <line x1="10.600" y1="1.900" x2="10.600" y2="0.973"/>
        <line x1="10.600" y1="1.900" x2="11.069" y2="2.231"/>
      </g>
    </g>

    <!-- Scale bar (10 cm at DRAW_SCALE = 0.32 drawing units / cm) -->
    <g stroke-width="0.04">
      <line x1="-13.6" y1="18.5" x2="-10.400" y2="18.5"/>
      <line x1="-13.6" y1="18.35" x2="-13.6" y2="18.65"/>
      <line x1="-12.960" y1="18.4" x2="-12.960" y2="18.6"/>
      <line x1="-12.320" y1="18.4" x2="-12.320" y2="18.6"/>
      <line x1="-11.680" y1="18.4" x2="-11.680" y2="18.6"/>
      <line x1="-11.040" y1="18.4" x2="-11.040" y2="18.6"/>
      <line x1="-10.400" y1="18.35" x2="-10.400" y2="18.65"/>
    </g>

    <!-- Title block — bottom-right -->
    <g stroke-width="0.04">
      <rect x="6.4" y="17.4" width="7.2" height="2"/>
      <line x1="6.4" y1="18.05" x2="13.6" y2="18.05"/>
      <line x1="10.0" y1="18.05" x2="10.0" y2="19.4"/>
    </g>

    <!-- Border frame -->
    <rect x="-15.6" y="-19.6" width="31.2" height="39.2" stroke-width="0.06"/>

  </g>

  <!-- Text labels -->
  <g fill="#e8202a" font-size="0.42" letter-spacing="0.06">
    <!-- Panel labels — placed above each plot area, clear of ticks -->
    <text x="-13.4" y="-17.700" font-size="0.4" letter-spacing="0.08">PROFILE</text>
    <text x="13.4" y="-17.700" font-size="0.3" text-anchor="end" opacity="0.7">SECTION A · LOOKING +Z</text>
    <text x="-13.4" y="-0.700" font-size="0.4" letter-spacing="0.08">ANGLE</text>
    <text x="13.4" y="-0.700" font-size="0.3" text-anchor="end" opacity="0.7">YAW 28° · PITCH 22°</text>

    <!-- Profile dimension label: 39 cm (body + muzzle stickout) -->
    <text x="0" y="-3.450" text-anchor="middle" font-size="0.3" opacity="0.85">39 CM · OAL</text>

    <!-- Axis indicator labels -->
    <text x="11.792" y="1.783" text-anchor="middle" font-size="0.32">+X</text>
      <text x="10.600" y="0.768" text-anchor="middle" font-size="0.32">+Y</text>
      <text x="11.234" y="2.467" text-anchor="middle" font-size="0.32">+Z</text>

    <!-- Scale bar label -->
    <text x="-12.000" y="18.05" text-anchor="middle" font-size="0.3">0    2    4    6    8   10 CM</text>

    <!-- Title block -->
    <text x="6.6" y="17.85" font-size="0.34">DRAWING</text>
    <text x="10.2" y="17.85" font-size="0.34">SHEET 002</text>
    <text x="6.6" y="18.55" font-size="0.4" letter-spacing="0.08">REC. APERTURE</text>
    <text x="6.6" y="18.95" font-size="0.26" opacity="0.7">FIELD ISSUE · MK I</text>
    <text x="10.2" y="18.55" font-size="0.26">SCALE 1 : 3</text>
    <text x="10.2" y="18.95" font-size="0.26" opacity="0.7">PROFILE + ¾</text>
  </g>
</svg>
